<?xml version="1.0" encoding="utf-8"?>
<!-- Generator: Adobe Illustrator 18.1.1, SVG Export Plug-In . SVG Version: 6.00 Build 0)  -->
<svg version="1.1" xmlns="http://www.w3.org/2000/svg" xmlns:xlink="http://www.w3.org/1999/xlink" x="0px" y="0px"
	 viewBox="0 0 96 96" enable-background="new 0 0 96 96" xml:space="preserve">
<g id="Слой_1">
</g>
<g id="Слой_2">
	<g>
		<g>
			<g>
				<path fill="#274E8C" d="M87.9,93H8.1C5.3,93,3,90.7,3,87.9V8.1C3,5.3,5.3,3,8.1,3h79.7C90.7,3,93,5.3,93,8.1v79.7
					C93,90.7,90.7,93,87.9,93z"/>
				<path fill="#274E8C" d="M87.9,93H8.1C5.3,93,3,90.7,3,87.9V8.1C3,5.3,5.3,3,8.1,3h79.7C90.7,3,93,5.3,93,8.1v79.7
					C93,90.7,90.7,93,87.9,93z"/>
			</g>
		</g>
		<g>
			<g>
				<path fill="#274E8C" d="M87.9,93H8.1C5.3,93,3,90.7,3,87.9V8.1C3,5.3,5.3,3,8.1,3h79.7C90.7,3,93,5.3,93,8.1v79.7
					C93,90.7,90.7,93,87.9,93z"/>
			</g>
		</g>
		<g>
			<g>
				<path fill="none" stroke="#FFFFFF" stroke-width="2" stroke-miterlimit="10" d="M87.9,93H8.1C5.3,93,3,90.7,3,87.9V8.1
					C3,5.3,5.3,3,8.1,3h79.7C90.7,3,93,5.3,93,8.1v79.7C93,90.7,90.7,93,87.9,93z"/>
				<path fill="none" stroke="#FFFFFF" stroke-width="2" stroke-miterlimit="10" d="M87.9,93H8.1C5.3,93,3,90.7,3,87.9V8.1
					C3,5.3,5.3,3,8.1,3h79.7C90.7,3,93,5.3,93,8.1v79.7C93,90.7,90.7,93,87.9,93z"/>
			</g>
		</g>
	</g>
	<g>
		<linearGradient id="SVGID_1_" gradientUnits="userSpaceOnUse" x1="18.7933" y1="17.3434" x2="18.7933" y2="78.6608">
			<stop  offset="0" style="stop-color:#002E7E"/>
			<stop  offset="1" style="stop-color:#FFFFFF"/>
		</linearGradient>
		<path fill="url(#SVGID_1_)" d="M12.4,48L12.4,48c0,9.7,5.2,18.1,12.9,22.8c-2.4-4-3.8-8.7-3.8-13.7c0-3.2,0.6-6.3,1.6-9.1
			c-1-2.8-1.6-5.9-1.6-9.1c0-5,1.4-9.7,3.8-13.7C17.5,29.9,12.4,38.3,12.4,48z"/>
		<linearGradient id="SVGID_2_" gradientUnits="userSpaceOnUse" x1="77.2066" y1="78.8566" x2="77.2066" y2="17.1431">
			<stop  offset="0" style="stop-color:#002E7E"/>
			<stop  offset="1" style="stop-color:#FFFFFF"/>
		</linearGradient>
		<path fill="url(#SVGID_2_)" d="M70.8,25.2L70.8,25.2c2.4,4,3.8,8.7,3.8,13.7c0,3.2-0.6,6.3-1.6,9.1c1,2.8,1.6,5.9,1.6,9.1
			c0,5-1.4,9.7-3.8,13.7v0c7.7-4.6,12.9-13.1,12.9-22.8C83.6,38.3,78.5,29.9,70.8,25.2z"/>
		<linearGradient id="SVGID_3_" gradientUnits="userSpaceOnUse" x1="26.4964" y1="67.3134" x2="70.3081" y2="67.3134">
			<stop  offset="0" style="stop-color:#002E7E"/>
			<stop  offset="1" style="stop-color:#FFFFFF"/>
		</linearGradient>
		<path fill="url(#SVGID_3_)" d="M34.3,61.7L34.3,61.7c3.1,5.2,7.9,9.2,13.7,11.3c5.7-2.1,10.6-6.1,13.7-11.3
			c-4,2.4-8.7,3.8-13.7,3.8C43,65.5,38.3,64.1,34.3,61.7z"/>
		<linearGradient id="SVGID_4_" gradientUnits="userSpaceOnUse" x1="46.3494" y1="84.0194" x2="83.8701" y2="47.786">
			<stop  offset="0" style="stop-color:#002E7E"/>
			<stop  offset="1" style="stop-color:#FFFFFF"/>
		</linearGradient>
		<path fill="url(#SVGID_4_)" d="M61.7,61.7c5.2-3.1,9.2-7.9,11.3-13.7c1,2.8,1.6,5.9,1.6,9.1c0,5-1.4,9.7-3.8,13.7
			c-4,2.4-8.7,3.8-13.7,3.8c-3.2,0-6.3-0.6-9.1-1.6C53.7,70.9,58.6,66.8,61.7,61.7z"/>
		<linearGradient id="SVGID_5_" gradientUnits="userSpaceOnUse" x1="13.8964" y1="48.3322" x2="44.429" y2="79.9496">
			<stop  offset="0" style="stop-color:#002E7E"/>
			<stop  offset="1" style="stop-color:#FFFFFF"/>
		</linearGradient>
		<path fill="url(#SVGID_5_)" d="M21.4,57L21.4,57c0,5.1,1.4,9.7,3.8,13.7c4,2.4,8.7,3.8,13.7,3.8c3.2,0,6.3-0.6,9.1-1.6
			c-5.7-2.1-10.6-6.1-13.7-11.3C29.2,58.6,25.1,53.7,23,48C22,50.8,21.5,53.9,21.4,57z"/>
		<linearGradient id="SVGID_6_" gradientUnits="userSpaceOnUse" x1="16.9738" y1="77.2049" x2="79.0266" y2="77.2049">
			<stop  offset="0" style="stop-color:#002E7E"/>
			<stop  offset="1" style="stop-color:#FFFFFF"/>
		</linearGradient>
		<path fill="url(#SVGID_6_)" d="M25.2,70.8L25.2,70.8c4.6,7.7,13.1,12.9,22.8,12.9c9.7,0,18.1-5.2,22.8-12.9
			c-4,2.4-8.7,3.8-13.7,3.8c-3.2,0-6.3-0.6-9.1-1.6c-2.8,1-5.9,1.6-9.1,1.6C33.9,74.6,29.2,73.2,25.2,70.8z"/>
		<linearGradient id="SVGID_7_" gradientUnits="userSpaceOnUse" x1="67.3152" y1="68.4849" x2="67.3152" y2="27.5139">
			<stop  offset="0" style="stop-color:#002E7E"/>
			<stop  offset="1" style="stop-color:#FFFFFF"/>
		</linearGradient>
		<path fill="url(#SVGID_7_)" d="M61.7,34.3L61.7,34.3c2.4,4,3.8,8.7,3.8,13.7s-1.4,9.7-3.8,13.7l0,0c5.2-3.1,9.2-7.9,11.3-13.7
			C70.9,42.3,66.8,37.4,61.7,34.3z"/>
		<linearGradient id="SVGID_8_" gradientUnits="userSpaceOnUse" x1="28.6847" y1="27.5111" x2="28.6847" y2="68.4849">
			<stop  offset="0" style="stop-color:#002E7E"/>
			<stop  offset="1" style="stop-color:#FFFFFF"/>
		</linearGradient>
		<path fill="url(#SVGID_8_)" d="M23,48L23,48c2.1,5.7,6.1,10.6,11.3,13.7c-2.4-4-3.8-8.7-3.8-13.7s1.4-9.7,3.8-13.7
			C29.2,37.4,25.1,42.3,23,48z"/>
		<linearGradient id="SVGID_9_" gradientUnits="userSpaceOnUse" x1="71.442" y1="29.214" x2="26.6375" y2="28.432">
			<stop  offset="0" style="stop-color:#002E7E"/>
			<stop  offset="1" style="stop-color:#FFFFFF"/>
		</linearGradient>
		<path fill="url(#SVGID_9_)" d="M34.3,34.3L34.3,34.3c4-2.4,8.7-3.8,13.7-3.8c5,0,9.7,1.4,13.7,3.8C58.6,29.2,53.7,25.1,48,23
			C42.3,25.1,37.4,29.2,34.3,34.3z"/>
		<linearGradient id="SVGID_10_" gradientUnits="userSpaceOnUse" x1="83.2019" y1="48.804" x2="46.8997" y2="11.2119">
			<stop  offset="0" style="stop-color:#002E7E"/>
			<stop  offset="1" style="stop-color:#FFFFFF"/>
		</linearGradient>
		<path fill="url(#SVGID_10_)" d="M70.8,25.2c2.4,4,3.8,8.7,3.8,13.7c0,3.2-0.6,6.3-1.6,9.1c-2.1-5.7-6.1-10.6-11.3-13.7
			C58.6,29.2,53.7,25.1,48,23c2.8-1,5.9-1.6,9.1-1.6C62.1,21.4,66.8,22.8,70.8,25.2z"/>
		<linearGradient id="SVGID_11_" gradientUnits="userSpaceOnUse" x1="49.6959" y1="9.6136" x2="13.2391" y2="50.103">
			<stop  offset="0" style="stop-color:#002E7E"/>
			<stop  offset="1" style="stop-color:#FFFFFF"/>
		</linearGradient>
		<path fill="url(#SVGID_11_)" d="M21.4,38.9L21.4,38.9c0,3.3,0.6,6.3,1.6,9.1c2.1-5.7,6.1-10.6,11.3-13.7
			c3.1-5.2,7.9-9.2,13.7-11.3c-2.8-1-5.9-1.6-9.1-1.6c-5,0-9.7,1.4-13.7,3.8C22.8,29.2,21.5,33.9,21.4,38.9z"/>
		<linearGradient id="SVGID_12_" gradientUnits="userSpaceOnUse" x1="77.8974" y1="18.7947" x2="16.7689" y2="18.7947">
			<stop  offset="0" style="stop-color:#002E7E"/>
			<stop  offset="1" style="stop-color:#FFFFFF"/>
		</linearGradient>
		<path fill="url(#SVGID_12_)" d="M25.2,25.2L25.2,25.2c4-2.4,8.7-3.8,13.7-3.8c3.2,0,6.3,0.6,9.1,1.6c2.8-1,5.9-1.6,9.1-1.6
			c5,0,9.7,1.4,13.7,3.8C66.1,17.5,57.7,12.4,48,12.4C38.3,12.4,29.9,17.5,25.2,25.2z"/>
	</g>
</g>
</svg>
