<svg xmlns="http://www.w3.org/2000/svg" width="1920" height="71"><path d="M520,517L-62,525L766,522Z" fill="#7386b6" stroke="#7386b6" stroke-width="1.51"/><path d="M1063,514L766,522L1980,528Z" fill="#7ba3d5" stroke="#7ba3d5" stroke-width="1.51"/><path d="M1696,464L1396,478L1980,528Z" fill="#8cb1de" stroke="#8cb1de" stroke-width="1.51"/><path d="M1396,478L1063,514L1980,528Z" fill="#7ca9dc" stroke="#7ca9dc" stroke-width="1.51"/><path d="M557,-461L1106,-448L2276,-440Z" fill="#195ea2" stroke="#195ea2" stroke-width="1.51"/><path d="M1755,-369L2035,-387L2276,-440Z" fill="#647db1" stroke="#647db1" stroke-width="1.51"/><path d="M1392,-406L1755,-369L2276,-440Z" fill="#4e73ad" stroke="#4e73ad" stroke-width="1.51"/><path d="M1106,-448L1392,-406L2276,-440Z" fill="#3269aa" stroke="#3269aa" stroke-width="1.51"/><path d="M2052,-70L2029,198L2278,214Z" fill="#759cd0" stroke="#759cd0" stroke-width="1.51"/><path d="M2276,-440L2035,-387L2279,-99Z" fill="#7586b5" stroke="#7586b5" stroke-width="1.51"/><path d="M2052,-70L2278,214L2279,-99Z" fill="#7b98c8" stroke="#7b98c8" stroke-width="1.51"/><path d="M2278,214L2029,198L2336,477Z" fill="#90b4df" stroke="#90b4df" stroke-width="1.51"/><path d="M2029,198L1980,528L2336,477Z" fill="#9fbce1" stroke="#9fbce1" stroke-width="1.51"/><path d="M2279,-99L2278,214L2336,477Z" fill="#88adda" stroke="#88adda" stroke-width="1.51"/><path d="M2276,-440L2279,-99L2336,477Z" fill="#8399c5" stroke="#8399c5" stroke-width="1.51"/><path d="M2035,-387L2052,-70L2279,-99Z" fill="#6e84b5" stroke="#6e84b5" stroke-width="1.51"/><path d="M1707,209L1696,464L1980,528Z" fill="#81abdc" stroke="#81abdc" stroke-width="1.51"/><path d="M1707,209L1980,528L2029,198Z" fill="#75a6da" stroke="#75a6da" stroke-width="1.51"/><path d="M1755,-369L1718,-145L2035,-387Z" fill="#5275af" stroke="#5275af" stroke-width="1.51"/><path d="M1707,209L2029,198L2052,-70Z" fill="#6193cc" stroke="#6193cc" stroke-width="1.51"/><path d="M1718,-145L1707,209L2052,-70Z" fill="#5484c0" stroke="#5484c0" stroke-width="1.51"/><path d="M2035,-387L1718,-145L2052,-70Z" fill="#5d7ab2" stroke="#5d7ab2" stroke-width="1.51"/><path d="M1432,224L1707,209L1718,-145Z" fill="#3882c5" stroke="#3882c5" stroke-width="1.51"/><path d="M1390,-135L1432,224L1718,-145Z" fill="#2474ba" stroke="#2474ba" stroke-width="1.51"/><path d="M1392,-406L1390,-135L1718,-145Z" fill="#2367ab" stroke="#2367ab" stroke-width="1.51"/><path d="M1392,-406L1718,-145L1755,-369Z" fill="#376cac" stroke="#376cac" stroke-width="1.51"/><path d="M1432,224L1396,478L1696,464Z" fill="#5e9cd7" stroke="#5e9cd7" stroke-width="1.51"/><path d="M1432,224L1696,464L1707,209Z" fill="#4f96d5" stroke="#4f96d5" stroke-width="1.51"/><path d="M1106,-448L1101,-91L1390,-135Z" fill="#1a5ca1" stroke="#1a5ca1" stroke-width="1.51"/><path d="M1106,-448L1390,-135L1392,-406Z" fill="#195fa3" stroke="#195fa3" stroke-width="1.51"/><path d="M1069,172L1063,514L1396,478Z" fill="#578fcc" stroke="#578fcc" stroke-width="1.51"/><path d="M1390,-135L1101,-91L1432,224Z" fill="#166eb5" stroke="#166eb5" stroke-width="1.51"/><path d="M1101,-91L1069,172L1432,224Z" fill="#1472ba" stroke="#1472ba" stroke-width="1.51"/><path d="M1069,172L1396,478L1432,224Z" fill="#3488cc" stroke="#3488cc" stroke-width="1.51"/><path d="M-132,-464L234,-397L557,-461Z" fill="#1c4282" stroke="#1c4282" stroke-width="1.51"/><path d="M822,196L766,522L1063,514Z" fill="#5c88c2" stroke="#5c88c2" stroke-width="1.51"/><path d="M822,196L1063,514L1069,172Z" fill="#357ec1" stroke="#357ec1" stroke-width="1.51"/><path d="M849,-127L822,196L1069,172Z" fill="#1867ad" stroke="#1867ad" stroke-width="1.51"/><path d="M849,-127L1069,172L1101,-91Z" fill="#1962a8" stroke="#1962a8" stroke-width="1.51"/><path d="M831,-374L849,-127L1101,-91Z" fill="#1b5498" stroke="#1b5498" stroke-width="1.51"/><path d="M557,-461L831,-374L1106,-448Z" fill="#1b4f91" stroke="#1b4f91" stroke-width="1.51"/><path d="M831,-374L1101,-91L1106,-448Z" fill="#1b5699" stroke="#1b5699" stroke-width="1.51"/><path d="M259,463L-62,525L520,517Z" fill="#6f83b5" stroke="#6f83b5" stroke-width="1.51"/><path d="M546,227L766,522L822,196Z" fill="#3d77b8" stroke="#3d77b8" stroke-width="1.51"/><path d="M557,-461L475,-147L831,-374Z" fill="#1c498b" stroke="#1c498b" stroke-width="1.51"/><path d="M546,227L822,196L849,-127Z" fill="#1963a9" stroke="#1963a9" stroke-width="1.51"/><path d="M475,-147L546,227L849,-127Z" fill="#1b569a" stroke="#1b569a" stroke-width="1.51"/><path d="M831,-374L475,-147L849,-127Z" fill="#1c4c90" stroke="#1c4c90" stroke-width="1.51"/><path d="M546,227L520,517L766,522Z" fill="#5d80b8" stroke="#5d80b8" stroke-width="1.51"/><path d="M189,-121L196,214L475,-147Z" fill="#1c5094" stroke="#1c5094" stroke-width="1.51"/><path d="M475,-147L196,214L546,227Z" fill="#1b5a9f" stroke="#1b5a9f" stroke-width="1.51"/><path d="M259,463L520,517L546,227Z" fill="#5778b2" stroke="#5778b2" stroke-width="1.51"/><path d="M196,214L259,463L546,227Z" fill="#386cad" stroke="#386cad" stroke-width="1.51"/><path d="M234,-397L475,-147L557,-461Z" fill="#1c4385" stroke="#1c4385" stroke-width="1.51"/><path d="M234,-397L189,-121L475,-147Z" fill="#1c4486" stroke="#1c4486" stroke-width="1.51"/><path d="M-94,230L-62,525L196,214Z" fill="#3f6dac" stroke="#3f6dac" stroke-width="1.51"/><path d="M189,-121L-95,-103L196,214Z" fill="#1b5194" stroke="#1b5194" stroke-width="1.51"/><path d="M-95,-103L189,-121L234,-397Z" fill="#1c4385" stroke="#1c4385" stroke-width="1.51"/><path d="M196,214L-62,525L259,463Z" fill="#5577b0" stroke="#5577b0" stroke-width="1.51"/><path d="M-95,-103L-94,230L196,214Z" fill="#1a5a9e" stroke="#1a5a9e" stroke-width="1.51"/><path d="M-132,-464L-95,-103L234,-397Z" fill="#1b4283" stroke="#1b4283" stroke-width="1.51"/><path d="M-348,-152L-432,163L-95,-103Z" fill="#1b4d8f" stroke="#1b4d8f" stroke-width="1.51"/><path d="M-132,-464L-348,-152L-95,-103Z" fill="#1c4283" stroke="#1c4283" stroke-width="1.51"/><path d="M-95,-103L-432,163L-94,230Z" fill="#1a589b" stroke="#1a589b" stroke-width="1.51"/><path d="M-94,230L-389,519L-62,525Z" fill="#5c79af" stroke="#5c79af" stroke-width="1.51"/><path d="M-438,-387L-348,-152L-132,-464Z" fill="#1a4181" stroke="#1a4181" stroke-width="1.51"/><path d="M-432,163L-389,519L-94,230Z" fill="#386aaa" stroke="#386aaa" stroke-width="1.51"/><path d="M-438,-387L-432,163L-348,-152Z" fill="#1b4586" stroke="#1b4586" stroke-width="1.51"/></svg>